<?xml version="1.0" encoding="UTF-8"?>
<svg version="1.1" xmlns="http://www.w3.org/2000/svg" width="512" height="512">
<path d="M0 0 C11.41868752 10.04769379 22.44844234 20.8125263 31.625 32.96484375 C32.11178223 33.60228516 32.59856445 34.23972656 33.10009766 34.89648438 C41.33792735 45.74008152 48.41458774 56.85076835 54.625 68.96484375 C55.0384668 69.75665039 55.45193359 70.54845703 55.87792969 71.36425781 C69.1749716 97.02826415 77.48874999 125.22804134 80.625 153.96484375 C80.73585938 154.91875 80.84671875 155.87265625 80.9609375 156.85546875 C85.14405071 200.04328626 76.64098492 244.07629801 57.625 282.96484375 C57.28388184 283.66625488 56.94276367 284.36766602 56.59130859 285.09033203 C46.08136884 306.42839788 32.09176897 325.83632612 15.625 342.96484375 C15.05620117 343.56087402 14.48740234 344.1569043 13.90136719 344.77099609 C5.88306899 353.13219623 -2.34666361 360.82241047 -11.671875 367.70605469 C-13.33534931 368.93553771 -14.98027552 370.18700587 -16.625 371.44140625 C-65.60930891 408.20332473 -129.72629344 422.33986247 -189.95703125 414.00390625 C-235.80056373 406.94457766 -280.03268958 387.0852415 -314.00390625 355.18359375 C-316.05652646 353.26285523 -318.1550953 351.45238694 -320.3125 349.65234375 C-359.24700751 315.54508209 -382.49090599 263.23579816 -390.375 212.96484375 C-390.49359375 212.21122559 -390.6121875 211.45760742 -390.734375 210.68115234 C-393.9278276 189.22514269 -393.80018277 166.38405445 -390.375 144.96484375 C-390.16496338 143.60939453 -390.16496338 143.60939453 -389.95068359 142.2265625 C-383.54464167 102.47318086 -367.04651164 64.75241544 -342.375 32.96484375 C-341.64796875 32.02382812 -340.9209375 31.0828125 -340.171875 30.11328125 C-301.88145372 -17.96246991 -244.73078142 -49.28056764 -183.8125 -56.84765625 C-116.59555047 -64.30004654 -51.16682918 -43.84525987 0 0 Z M-276.84667969 99.25439453 C-290.73039949 114.79262791 -299.52653281 133.85503311 -304.375 153.96484375 C-304.64054687 155.05539063 -304.90609375 156.1459375 -305.1796875 157.26953125 C-310.98902689 187.27118811 -303.79382891 219.59929859 -287.07421875 244.93603516 C-284.26671505 249.01374795 -281.32372679 252.98868603 -278.375 256.96484375 C-277.31176313 258.4285824 -276.26541624 259.90503505 -275.25 261.40234375 C-274.87617188 261.93730469 -274.50234375 262.47226562 -274.1171875 263.0234375 C-271.92068 268.76903869 -273.84395825 274.97865469 -275.4375 280.65234375 C-275.65720459 281.43891357 -275.87690918 282.2254834 -276.10327148 283.03588867 C-278.51394338 291.15914758 -282.19004078 298.08335023 -287.58984375 304.6640625 C-289.57933718 306.74285028 -289.57933718 306.74285028 -289.375 308.96484375 C-276.29695228 313.32419299 -261.917849 309.75124279 -249.8515625 303.8046875 C-242.17705195 300.00302609 -242.17705195 300.00302609 -235.1953125 295.125 C-233.375 293.96484375 -233.375 293.96484375 -231.08740234 294.27416992 C-228.35003999 294.97119945 -225.79354683 295.8451753 -223.15625 296.85546875 C-212.8421546 300.7323513 -202.61464848 304.44223877 -191.875 306.96484375 C-191.04677734 307.15981445 -190.21855469 307.35478516 -189.36523438 307.55566406 C-167.76396129 312.37061776 -140.84346255 312.54843554 -119.375 306.96484375 C-118.55612305 306.76084961 -117.73724609 306.55685547 -116.89355469 306.34667969 C-92.5115144 300.17708054 -69.68798977 290.32584804 -50.375 273.96484375 C-49.86775391 273.5359082 -49.36050781 273.10697266 -48.83789062 272.66503906 C-24.66934893 252.00384594 -7.28432654 223.19155997 -4.52001953 191.07519531 C-2.18683125 157.12219952 -11.47434745 126.26731725 -33.66015625 100.2890625 C-35.85722185 97.80558698 -38.10140067 95.37823038 -40.375 92.96484375 C-40.97441406 92.30097656 -41.57382812 91.63710937 -42.19140625 90.953125 C-68.42285809 63.02201105 -111.88299406 48.15097324 -149.375 46.96484375 C-150.28121094 46.92488281 -151.18742188 46.88492188 -152.12109375 46.84375 C-199.01684586 45.73802492 -244.94598509 64.99464066 -276.84667969 99.25439453 Z " fill="#000000" transform="translate(411.375,77.03515625)"/>
</svg>
